# xmcd CD database file
#
# Track frame offsets:
#	183
#	11330
#	22780
#	34613
#	42713
#	53450
#	66538
#	77995
#	87908
#	99080
#	110093
#	121265
#	132513
#	143110
#	155415
#	165420
#	176395
#	186635
#	196578
#	208663
#
# Disc length: 2947 seconds
#
# Revision: 0
# Processed by: cddbd v1.5PL3 Copyright (c) Steve Scherf et al.
# Submitted via: Feurio! 1.67 - http://www.feurio.com
#
DISCID=080b8114
DTITLE=Various Artist - American Dance a Gogo vol.2
DYEAR=1900
DGENRE=Popcorn
TTITLE0=Jerry Angelo - Three Deadly Sins
TTITLE1=Al Saxon - Evil Eye
TTITLE2=Donna Douglas - All the Other Girls
TTITLE3=Susan Singer - Bobby's Lovin' Touch
TTITLE4=Jerry Angelo - The Two Together
TTITLE5=Roy Lee - Honey Lies
TTITLE6=Jerry Angelo - The Boy Who Walks Alone
TTITLE7=Patsy Ann Noble - Don't Tell Him I Told You
TTITLE8=Tin Connor - Lost Love
TTITLE9=William Bell - Any Other Love
TTITLE10=Rick Nelson - Lucky Star
TTITLE11=Rick Nelson - Travelin' Man
TTITLE12=Drifters - Dance with Me
TTITLE13=Drifters - Sweet for My Sweet
TTITLE14=Roberto Boolis - Amo te Solo te
TTITLE15=Larry Hall - Rebel Heart
TTITLE16=Tommy Sands - Doctor Heartache
TTITLE17=Boby Darin - Simulav
TTITLE18=Kevin Mc Quin - Keep Me on Your Mind
TTITLE19=Richard Anthony - Cin, Cin, (italian version)
EXTD=
EXTT0=
EXTT1=
EXTT2=
EXTT3=
EXTT4=
EXTT5=
EXTT6=
EXTT7=
EXTT8=
EXTT9=
EXTT10=
EXTT11=
EXTT12=
EXTT13=
EXTT14=
EXTT15=
EXTT16=
EXTT17=
EXTT18=
EXTT19=
PLAYORDER=
